<svg width="36" height="36" viewBox="0 0 36 36" fill="none" xmlns="http://www.w3.org/2000/svg">
<circle cx="18" cy="18" r="17.617" fill="#F5F5F5" stroke="#D9D9D9" stroke-width="0.765957"/>
<circle cx="17.9999" cy="18" r="8.80851" fill="#D9D9D9"/>
<path d="M17.4619 22.1741C16.5698 22.1741 15.8807 21.9674 15.3947 21.5539C14.916 21.1405 14.6585 20.5965 14.6222 19.9219L15.8299 19.8566C15.8734 20.2991 16.0403 20.6182 16.3304 20.8141C16.6278 21.0027 17.005 21.097 17.4619 21.097C17.7666 21.097 18.0458 21.0571 18.2997 20.9773C18.5608 20.8902 18.7675 20.7524 18.9198 20.5638C19.0794 20.368 19.1592 20.1141 19.1592 19.8022C19.1592 19.338 19.0033 18.9971 18.6914 18.7795C18.3795 18.5547 17.966 18.4422 17.451 18.4422H16.8091V17.4195H17.451C17.8645 17.4195 18.209 17.3361 18.4846 17.1693C18.7603 17.0025 18.8981 16.7123 18.8981 16.2989C18.8981 15.9362 18.782 15.6606 18.5499 15.472C18.3178 15.2762 17.9624 15.1782 17.4837 15.1782C17.0195 15.1782 16.6677 15.2689 16.4283 15.4502C16.189 15.6316 16.0475 15.8782 16.004 16.1901L14.7963 16.1248C14.8689 15.5155 15.1336 15.0259 15.5906 14.656C16.0548 14.2861 16.6858 14.1011 17.4837 14.1011C18.0349 14.1011 18.5064 14.1882 18.8981 14.3622C19.2898 14.5291 19.5908 14.7721 19.8011 15.0912C20.0115 15.4103 20.1166 15.7839 20.1166 16.2118C20.1166 16.6833 19.9643 17.0677 19.6597 17.3651C19.3623 17.6625 18.9235 17.8656 18.3432 17.9744V17.7786C18.9742 17.8583 19.4711 18.0832 19.8338 18.4531C20.1964 18.8158 20.3778 19.28 20.3778 19.8458C20.3778 20.3317 20.2545 20.7524 20.0078 21.1078C19.7612 21.456 19.4203 21.7207 18.9851 21.9021C18.5499 22.0834 18.0422 22.1741 17.4619 22.1741Z" fill="white"/>
</svg>
